<svg width="301" height="70" viewBox="0 0 301 70" fill="none" xmlns="http://www.w3.org/2000/svg">
<path d="M93 24.1655V19H117.368V24.1655H107.989V51H102.379V24.1655H93Z" fill="#001011"/>
<path d="M127.266 51H121.656V19H133.884C141.159 19 145.41 22.6772 145.41 28.9808C145.41 33.2709 143.394 36.3352 139.625 37.8673L145.717 51H139.581L134.147 39.0492H127.266V51ZM127.266 23.9904V34.1026H133.884C137.434 34.1026 139.537 32.2202 139.537 28.9808C139.537 25.7852 137.434 23.9904 133.884 23.9904H127.266Z" fill="#001011"/>
<path d="M156.626 19V51H151.016V19H156.626Z" fill="#001011"/>
<path d="M176.394 39.9685H169.338V51H163.728V19H176.394C182.836 19 187 23.2025 187 29.4624C187 35.6347 182.793 39.9685 176.394 39.9685ZM175.298 23.9904H169.338V34.9781H175.211C179.067 34.9781 181.127 32.9207 181.127 29.4186C181.127 25.9166 179.024 23.9904 175.298 23.9904Z" fill="#001011"/>
<path d="M201.704 50.498H195V19.5438H201.704L214.778 39.2458V19.5438H221.482V50.498H214.778L201.704 30.8379V50.498Z" fill="white"/>
<path d="M256.601 34.9791C256.601 44.4327 250.358 51 241.349 51C232.382 51 226.222 44.4745 226.222 35.0209C226.222 25.5673 232.424 19 241.391 19C250.4 19 256.601 25.5255 256.601 34.9791ZM249.436 34.9791C249.436 29.081 246.419 25.5255 241.433 25.5255C236.404 25.5255 233.387 29.081 233.387 34.9791C233.387 40.919 236.404 44.4745 241.433 44.4745C246.419 44.4745 249.436 40.8353 249.436 34.9791Z" fill="white"/>
<path d="M266.766 50.498L257.464 19.5438H264.546L268.61 32.9712C269.155 34.8118 269.658 36.6523 270.16 39.7059C270.663 36.6523 271.166 34.8954 271.711 32.9712L275.524 19.5438H283.108L286.753 32.9712C287.256 34.8536 287.759 36.7359 288.304 39.7059C288.932 36.5686 289.393 34.8536 289.938 33.0549L294.086 19.5438H301L291.53 50.498H284.91L279.253 30.1686L273.429 50.498H266.766Z" fill="white"/>
<rect width="92" height="70" fill="#1B9AAA"/>
<path d="M69.7745 35C69.7745 54.33 54.1044 70 34.7745 70C18.1969 70 4.61906 57.7912 1.00075 42.3164C0.692961 41 7.13265 49.1807 14.2745 50.5C21.0723 51.7557 31.7745 46.8423 31.7745 45.5C31.7745 44.8069 21.9166 45.9443 14.2745 42.3164C7.0035 38.8647 -0.0722564 31.64 0.000557168 31C1.98545 13.5537 16.7971 0 34.7745 0C54.1044 0 69.7745 15.67 69.7745 35Z" fill="white"/>
<path d="M65 38.5C65 55.3447 51.3005 69 34.4014 69C19.9086 69 7.66328 58.9852 4.5 45.5C4.23091 44.3529 10.2357 48.8504 16.4794 50C22.4224 51.0943 31.7787 46.8125 31.7787 45.6429C31.7787 45.0388 23.1605 48.0372 16.4794 44.8757C10.1228 41.8678 3.93683 35.572 4.00049 35.0143C5.73577 19.8111 18.6848 8 34.4014 8C51.3005 8 65 21.6553 65 38.5Z" fill="#62CAD7"/>
<path d="M60 40.5C60 55.1355 48.0972 67 33.4143 67C20.8222 67 9.9955 58.4227 7.24708 46.7061C7.01328 45.7094 11.5751 49.0011 17 50C22.1636 50.9508 31 47.0558 31 46.0395C31 45.5147 23.6476 48.7864 17.8427 46.0395C12.3198 43.4261 6.94469 38.4846 7 38C8.5077 24.7907 19.7589 14 33.4143 14C48.0972 14 60 25.8645 60 40.5Z" fill="#A4F0FA"/>
<path d="M30.6293 46.3533L21.5258 33.5384L25.7909 32.3402L31.0472 36.2386L44.1684 31.4967L31.2417 13.4032L36.5554 11.2769L57.1498 26.7665L70.8186 21.8386C72.2752 21.2963 73.6504 21.4608 74.9441 22.3321C76.2378 23.2034 76.9527 24.4499 77.0889 26.0718C77.1746 27.0912 76.9358 28.0212 76.3727 28.8618C75.8096 29.7024 75.0502 30.3028 74.0947 30.6631L30.6293 46.3533Z" fill="#001011"/>
</svg>
