<svg width="24" height="24" viewBox="0 0 24 24" fill="none" xmlns="http://www.w3.org/2000/svg">
<path fill-rule="evenodd" clip-rule="evenodd" d="M7.28 7.72C7.13938 7.57955 6.94875 7.50066 6.75 7.50066C6.55125 7.50066 6.36062 7.57955 6.22 7.72L2.47 11.47C2.32955 11.6106 2.25066 11.8012 2.25066 12C2.25066 12.1987 2.32955 12.3894 2.47 12.53L6.22 16.28C6.28866 16.3537 6.37146 16.4128 6.46346 16.4538C6.55546 16.4948 6.65477 16.5168 6.75548 16.5186C6.85618 16.5204 6.95621 16.5018 7.0496 16.4641C7.14299 16.4264 7.22782 16.3703 7.29904 16.299C7.37026 16.2278 7.4264 16.143 7.46412 16.0496C7.50184 15.9562 7.52037 15.8562 7.51859 15.7555C7.51681 15.6548 7.49477 15.5555 7.45378 15.4635C7.41279 15.3715 7.35369 15.2887 7.28 15.22L4.81 12.75H21C21.1989 12.75 21.3897 12.671 21.5303 12.5303C21.671 12.3897 21.75 12.1989 21.75 12C21.75 11.8011 21.671 11.6103 21.5303 11.4697C21.3897 11.329 21.1989 11.25 21 11.25H4.81L7.28 8.78C7.42045 8.63937 7.49934 8.44875 7.49934 8.25C7.49934 8.05125 7.42045 7.86062 7.28 7.72Z" fill="black"/>
</svg>
