<svg width="24" height="25" viewBox="0 0 24 25" fill="none" xmlns="http://www.w3.org/2000/svg">
<path d="M11.645 21.41L11.638 21.407L11.616 21.395C11.4873 21.3242 11.3596 21.2515 11.233 21.177C9.71081 20.2725 8.28827 19.2099 6.989 18.007C4.688 15.86 2.25 12.674 2.25 8.75C2.25 5.822 4.714 3.5 7.688 3.5C8.51475 3.49595 9.33178 3.67834 10.0783 4.03361C10.8249 4.38887 11.4817 4.90787 12 5.552C12.5184 4.90774 13.1754 4.38866 13.9221 4.03339C14.6689 3.67812 15.4861 3.4958 16.313 3.5C19.286 3.5 21.75 5.822 21.75 8.75C21.75 12.675 19.312 15.861 17.011 18.006C15.7117 19.209 14.2892 20.2715 12.767 21.176C12.6404 21.2508 12.5127 21.3239 12.384 21.395L12.362 21.407L12.355 21.411L12.352 21.412C12.2436 21.4694 12.1227 21.4995 12 21.4995C11.8773 21.4995 11.7564 21.4694 11.648 21.412L11.645 21.41Z" fill="black"/>
</svg>
